HIERARCHY
ROOT Hips
{
    OFFSET   0.000000   0.000000   0.000000
    CHANNELS 6 Xposition Yposition Zposition Zrotation Xrotation Yrotation
    JOINT Chest
    {
        OFFSET   0.000000   8.007230   0.000000
        CHANNELS 3 Zrotation Xrotation Yrotation
        JOINT Chest2
        {
            OFFSET   0.000000  22.077100   0.000000
            CHANNELS 3 Zrotation Xrotation Yrotation
            JOINT Neck
            {
                OFFSET   0.000000  23.254700   0.000000
                CHANNELS 3 Zrotation Xrotation Yrotation
                JOINT Head
                {
                    OFFSET   0.000010  14.370000   1.956610
                    CHANNELS 3 Zrotation Xrotation Yrotation
                    End Site
                    {
                        OFFSET   0.000000  19.566000   0.000000
                    }
                }
            }
            JOINT LeftCollar
            {
                OFFSET   3.911900  19.017000  -0.467063
                CHANNELS 3 Zrotation Xrotation Yrotation
                JOINT LeftShoulder
                {
                    OFFSET  10.383700   0.000000   0.000000
                    CHANNELS 3 Zrotation Xrotation Yrotation
                    JOINT LeftElbow
                    {
                        OFFSET  26.662100   0.001671   0.000522
                        CHANNELS 3 Zrotation Xrotation Yrotation
                        JOINT LeftWrist
                        {
                            OFFSET  28.869000   0.000037  -0.000114
                            CHANNELS 3 Zrotation Xrotation Yrotation
                            JOINT LeftFinger0
                            {
                                OFFSET   2.044650  -2.323450   3.252850
                                CHANNELS 3 Zrotation Xrotation Yrotation
                                JOINT LeftFinger01
                                {
                                    OFFSET   3.088140   0.000000   0.000000
                                    CHANNELS 3 Zrotation Xrotation Yrotation
                                    JOINT LeftFinger02
                                    {
                                        OFFSET   2.639460   0.000000   0.000000
                                        CHANNELS 3 Zrotation Xrotation Yrotation
                                        End Site
                                        {
                                            OFFSET   2.582190   0.000000   0.000000
                                        }
                                    }
                                }
                            }
                            JOINT LeftFinger1
                            {
                                OFFSET   8.364480   0.000000   3.252850
                                CHANNELS 3 Zrotation Xrotation Yrotation
                                JOINT LeftFinger11
                                {
                                    OFFSET   4.646930   0.000000   0.000000
                                    CHANNELS 3 Zrotation Xrotation Yrotation
                                    JOINT LeftFinger12
                                    {
                                        OFFSET   2.323470   0.000000   0.000000
                                        CHANNELS 3 Zrotation Xrotation Yrotation
                                        End Site
                                        {
                                            OFFSET   2.273050   0.000000   0.000000
                                        }
                                    }
                                }
                            }
                            JOINT LeftFinger2
                            {
                                OFFSET   8.364490   0.000016   1.078090
                                CHANNELS 3 Zrotation Xrotation Yrotation
                                JOINT LeftFinger21
                                {
                                    OFFSET   5.111620   0.000000   0.000000
                                    CHANNELS 3 Zrotation Xrotation Yrotation
                                    JOINT LeftFinger22
                                    {
                                        OFFSET   2.788150   0.000013   0.000000
                                        CHANNELS 3 Zrotation Xrotation Yrotation
                                        End Site
                                        {
                                            OFFSET   2.727660   0.000000   0.000000
                                        }
                                    }
                                }
                            }
                            JOINT LeftFinger3
                            {
                                OFFSET   7.899780   0.000016  -1.078090
                                CHANNELS 3 Zrotation Xrotation Yrotation
                                JOINT LeftFinger31
                                {
                                    OFFSET   4.646930   0.000000   0.000000
                                    CHANNELS 3 Zrotation Xrotation Yrotation
                                    JOINT LeftFinger32
                                    {
                                        OFFSET   2.323470   0.000000   0.000000
                                        CHANNELS 3 Zrotation Xrotation Yrotation
                                        End Site
                                        {
                                            OFFSET   2.273050   0.000000   0.000000
                                        }
                                    }
                                }
                            }
                            JOINT LeftFinger4
                            {
                                OFFSET   7.435080   0.000000  -3.252850
                                CHANNELS 3 Zrotation Xrotation Yrotation
                                JOINT LeftFinger41
                                {
                                    OFFSET   3.717550   0.000000   0.000000
                                    CHANNELS 3 Zrotation Xrotation Yrotation
                                    JOINT LeftFinger42
                                    {
                                        OFFSET   1.858760   0.000000   0.000000
                                        CHANNELS 3 Zrotation Xrotation Yrotation
                                        End Site
                                        {
                                            OFFSET   1.818440   0.000000   0.000000
                                        }
                                    }
                                }
                            }
                        }
                    }
                }
            }
            JOINT RightCollar
            {
                OFFSET  -3.911900  19.017000  -0.467064
                CHANNELS 3 Zrotation Xrotation Yrotation
                JOINT RightShoulder
                {
                    OFFSET -10.383700   0.000000   0.000000
                    CHANNELS 3 Zrotation Xrotation Yrotation
                    JOINT RightElbow
                    {
                        OFFSET -26.662100   0.001633   0.000260
                        CHANNELS 3 Zrotation Xrotation Yrotation
                        JOINT RightWrist
                        {
                            OFFSET -28.869000  -0.000045  -0.000080
                            CHANNELS 3 Zrotation Xrotation Yrotation
                            JOINT RightFinger0
                            {
                                OFFSET  -2.044660  -2.323490   3.252850
                                CHANNELS 3 Zrotation Xrotation Yrotation
                                JOINT RightFinger01
                                {
                                    OFFSET  -3.088140   0.000000   0.000000
                                    CHANNELS 3 Zrotation Xrotation Yrotation
                                    JOINT RightFinger02
                                    {
                                        OFFSET  -2.639450   0.000000   0.000000
                                        CHANNELS 3 Zrotation Xrotation Yrotation
                                        End Site
                                        {
                                            OFFSET  -2.582190   0.000000   0.000000
                                        }
                                    }
                                }
                            }
                            JOINT RightFinger1
                            {
                                OFFSET  -8.364480   0.000000   3.252850
                                CHANNELS 3 Zrotation Xrotation Yrotation
                                JOINT RightFinger11
                                {
                                    OFFSET  -4.646920   0.000000   0.000000
                                    CHANNELS 3 Zrotation Xrotation Yrotation
                                    JOINT RightFinger12
                                    {
                                        OFFSET  -2.323470   0.000000   0.000000
                                        CHANNELS 3 Zrotation Xrotation Yrotation
                                        End Site
                                        {
                                            OFFSET  -2.273050   0.000000   0.000000
                                        }
                                    }
                                }
                            }
                            JOINT RightFinger2
                            {
                                OFFSET  -8.364480   0.000000   1.078090
                                CHANNELS 3 Zrotation Xrotation Yrotation
                                JOINT RightFinger21
                                {
                                    OFFSET  -5.111610   0.000000   0.000000
                                    CHANNELS 3 Zrotation Xrotation Yrotation
                                    JOINT RightFinger22
                                    {
                                        OFFSET  -2.788160   0.000000   0.000000
                                        CHANNELS 3 Zrotation Xrotation Yrotation
                                        End Site
                                        {
                                            OFFSET  -2.727660   0.000000   0.000000
                                        }
                                    }
                                }
                            }
                            JOINT RightFinger3
                            {
                                OFFSET  -7.899780   0.000000  -1.078090
                                CHANNELS 3 Zrotation Xrotation Yrotation
                                JOINT RightFinger31
                                {
                                    OFFSET  -4.646930   0.000000   0.000000
                                    CHANNELS 3 Zrotation Xrotation Yrotation
                                    JOINT RightFinger32
                                    {
                                        OFFSET  -2.323470   0.000000   0.000000
                                        CHANNELS 3 Zrotation Xrotation Yrotation
                                        End Site
                                        {
                                            OFFSET  -2.273050   0.000000   0.000000
                                        }
                                    }
                                }
                            }
                            JOINT RightFinger4
                            {
                                OFFSET  -7.435090   0.000000  -3.252850
                                CHANNELS 3 Zrotation Xrotation Yrotation
                                JOINT RightFinger41
                                {
                                    OFFSET  -3.717550   0.000000   0.000000
                                    CHANNELS 3 Zrotation Xrotation Yrotation
                                    JOINT RightFinger42
                                    {
                                        OFFSET  -1.858760   0.000000   0.000000
                                        CHANNELS 3 Zrotation Xrotation Yrotation
                                        End Site
                                        {
                                            OFFSET  -1.818440   0.000000   0.000000
                                        }
                                    }
                                }
                            }
                        }
                    }
                }
            }
        }
    }
    JOINT LeftHip
    {
        OFFSET   9.782990   0.000000   0.000000
        CHANNELS 3 Zrotation Xrotation Yrotation
        JOINT LeftKnee
        {
            OFFSET  -0.000063 -41.789100   0.001657
            CHANNELS 3 Zrotation Xrotation Yrotation
            JOINT LeftAnkle
            {
                OFFSET   0.000078 -41.133200  -0.000113
                CHANNELS 3 Zrotation Xrotation Yrotation
                JOINT LeftToe
                {
                    OFFSET   0.000000  -6.358970  14.674500
                    CHANNELS 3 Zrotation Xrotation Yrotation
                    End Site
                    {
                        OFFSET   0.000000   0.000000   3.913200
                    }
                }
            }
        }
    }
    JOINT RightHip
    {
        OFFSET  -9.782990   0.000000   0.000000
        CHANNELS 3 Zrotation Xrotation Yrotation
        JOINT RightKnee
        {
            OFFSET   0.000053 -41.789200   0.000277
            CHANNELS 3 Zrotation Xrotation Yrotation
            JOINT RightAnkle
            {
                OFFSET   0.000030 -41.133200  -0.000150
                CHANNELS 3 Zrotation Xrotation Yrotation
                JOINT RightToe
                {
                    OFFSET   0.000000  -6.358960  14.674500
                    CHANNELS 3 Zrotation Xrotation Yrotation
                    End Site
                    {
                        OFFSET   0.000000   0.000000   3.913200
                    }
                }
            }
        }
    }
}
MOTION
Frames: 4
Frame Time:   0.016667
 -0.721629  89.583700  -0.424602  -2.317690  -6.972020  -1.025150   0.684991   3.541860  -0.122177   1.381530   7.081990  -0.287691  -0.268652  -0.363194  -0.008479  -0.428179  -0.736668   1.006170  -6.077820  -1.280340   2.194930 -77.373500   8.734490   1.475270  -0.873352  -9.280110 -16.930100  14.571300  -4.986850   1.885820  38.791800  29.650000 -57.762600 -30.213200   0.000000   0.000000 -10.106600   0.000000   0.000066 -28.639000   5.500860  -9.956130 -23.824300   0.003534   0.002902 -16.677000   0.001147   0.002642 -28.536300  -2.666880   4.890630 -38.156400   0.000102   0.002065 -25.412200   0.000000   0.001245 -28.344500  -2.650470   4.899530 -35.695700   0.001351   0.005373 -23.773300   0.000829   0.003924 -34.301700  -3.145070   4.598150 -51.637700   0.000306   0.003557 -34.389800  -0.000617   0.001283  10.503300   1.482000   8.091990  70.379800   2.016690  -4.654570  -0.997394  -8.598080  10.712900 -12.562400   0.497740   1.033650 -35.376200  24.448900  53.525200  32.753800   0.008515  -0.005426  11.376900   0.001430   0.008166  29.099900   6.086590  10.785700  24.279700  -0.002425   0.001443  16.995000  -0.001576   0.003329  27.278900   5.645310  10.805600  30.903000  -0.000554  -0.002674  20.581400  -0.006079   0.001493  28.308500   4.291680   7.910440  37.442500  -0.012830  -0.003328  24.936700  -0.004598   0.001695  40.696000  -1.280600  -1.488600  61.068900  -0.000483   0.003237  40.671900  -0.002450   0.006269   1.682330   8.740070   2.886140   1.069050   0.047454   5.170340  -0.547872  -3.067360   2.430120  -0.000000   0.000000   0.000000   4.919220   6.790330   0.609308  -2.547690   3.928410  -6.447640  -0.964763  -5.063520  -2.742150   0.000000   0.000000   0.000000
 -0.735489  89.583600  -0.428890  -2.312360  -7.016940  -0.977633   0.678207   3.555630  -0.115144   1.367550   7.109640  -0.273332  -0.258179  -0.363977  -0.008476  -0.417481  -0.738201   0.987857  -6.078430  -1.276280   2.202800 -77.398200   8.787040   1.455280  -0.869179  -9.303330 -16.876200  14.569200  -4.953930   1.913900  38.724700  29.609400 -57.692000 -30.287800   0.000000   0.000000 -10.143900   0.000000   0.000011 -28.625400   5.506180  -9.971020 -23.814100   0.003498   0.002854 -16.669800   0.001139   0.002598 -28.536500  -2.686560   4.926390 -38.194300   0.000100   0.002072 -25.437400   0.000000   0.001248 -28.344800  -2.669990   4.935380 -35.715500   0.001385   0.005389 -23.786500   0.000818   0.003933 -34.297700  -3.168040   4.631900 -51.637800   0.000298   0.003565 -34.389500  -0.000638   0.001315  10.508400   1.456690   8.071370  70.413300   2.044710  -4.657110  -0.992913  -8.614440  10.680600 -12.592000   0.495770   1.054630 -35.373100  24.469100  53.535900  32.776100   0.008514  -0.005425  11.388100   0.001426   0.008156  29.103300   6.084840  10.779700  24.282300  -0.002427   0.001444  16.997200  -0.001578   0.003337  27.278800   5.645610  10.805700  30.880200  -0.000488  -0.002694  20.566200  -0.006114   0.001464  28.308600   4.291310   7.909630  37.446900  -0.012842  -0.003357  24.939700  -0.004545   0.001673  40.702100  -1.282430  -1.490390  61.078200  -0.000409   0.003192  40.678100  -0.002490   0.006236   1.689960   8.771460   2.869640   1.075580   0.057266   5.159170  -0.553496  -3.065780   2.408910  -0.000000   0.000000   0.000000   4.932640   6.821340   0.590867  -2.548380   3.958060  -6.467610  -0.967206  -5.083260  -2.759260  -0.000000   0.000000   0.000000
 -0.757053  89.583400  -0.436234  -2.304650  -7.095520  -0.907003   0.667084   3.580610  -0.101576   1.344490   7.159810  -0.245730  -0.247095  -0.367926  -0.008467  -0.406026  -0.746186   0.960065  -6.080940  -1.268350   2.215690 -77.442000   8.879430   1.417350  -0.853372  -9.338250 -16.792800  14.567600  -4.920950   1.965160  38.657700  29.568600 -57.621500 -30.398200   0.000000   0.000000 -10.199100   0.000000  -0.000130 -28.611800   5.511490  -9.985920 -23.803900   0.003414   0.002744 -16.662700   0.001124   0.002506 -28.537600  -2.714580   4.977360 -38.246900   0.000096   0.002087 -25.472400   0.000000   0.001254 -28.345800  -2.697870   4.986430 -35.751200   0.001465   0.005426 -23.810200   0.000789   0.003957 -34.291800  -3.200750   4.680010 -51.637800   0.000277   0.003582 -34.389000  -0.000690   0.001395  10.522500   1.407680   8.050680  70.465500   2.101980  -4.661870  -0.989227  -8.646160  10.625000 -12.639800   0.493796   1.094530 -35.364800  24.498000  53.552000  32.809500   0.008513  -0.005425  11.404700   0.001410   0.008125  29.113700   6.083090  10.773700  24.290100  -0.002435   0.001449  17.003100  -0.001582   0.003358  27.278700   5.645910  10.805700  30.857300  -0.000364  -0.002740  20.551000  -0.006189   0.001402  28.309400   4.288720   7.903950  37.478100  -0.012867  -0.003420  24.960400  -0.004436   0.001624  40.727500  -1.290060  -1.497870  61.116600  -0.000276   0.003093  40.703600  -0.002577   0.006160   1.701780   8.828320   2.846090   1.086660   0.072768   5.140270  -0.561728  -3.062760   2.378310  -0.000000   0.000000  -0.000000   4.952660   6.875880   0.571181  -2.548940   4.007000  -6.499070  -0.971168  -5.114380  -2.787080  -0.000000   0.000000   0.000000
 -0.770989  89.583500  -0.441983  -2.302880  -7.167230  -0.868534   0.658074   3.604950  -0.084895   1.325470   7.208720  -0.211997  -0.246384  -0.376618  -0.008451  -0.405089  -0.764012   0.940465  -6.084480  -1.259030   2.227820 -77.481300   8.963640   1.375350  -0.820051  -9.352460 -16.728200  14.569700  -4.922440   2.009940  38.627300  29.567500 -57.626500 -30.448000   0.000000   0.000000 -10.224000   0.000000  -0.000347 -28.636100   5.492170  -9.939230 -23.821400   0.003286   0.002582 -16.675000   0.001107   0.002380 -28.540200  -2.728320   5.002430 -38.260500   0.000088   0.002109 -25.481500  -0.000082   0.001266 -28.347700  -2.711780   5.011400 -35.784600   0.001585   0.005481 -23.832500   0.000743   0.003996 -34.288900  -3.216780   4.703690 -51.637800   0.000243   0.003606 -34.388800  -0.000769   0.001517  10.548400   1.353920   8.053190  70.499000   2.172640  -4.668150  -1.007880  -8.668250  10.574600 -12.670700   0.494178   1.135960 -35.352600  24.505700  53.575600  32.825800   0.008514  -0.005438  11.412900   0.001377   0.008070  29.128600   6.101390  10.798300  24.304600  -0.002449   0.001458  17.013400  -0.001583   0.003390  27.280400   5.645860  10.804300  30.866200  -0.000195  -0.002806  20.556900  -0.006291   0.001315  28.315500   4.282720   7.890730  37.557100  -0.012908  -0.003506  25.013100  -0.004289   0.001554  40.775200  -1.304380  -1.511990  61.188600  -0.000108   0.002953  40.751600  -0.002698   0.006049   1.708320   8.885160   2.835040   1.096540   0.082703   5.125310  -0.565537  -3.059750   2.362040   0.000000   0.000000  -0.000000   4.963310   6.926770   0.569760  -2.547040   4.045250  -6.521840  -0.974051  -5.136030  -2.807400   0.000000   0.000000   0.000000
